<?xml version="1.0" encoding="UTF-8" standalone="no"?>
<svg width="800" height="500" viewBox="0 0 800 500" fill="none" xmlns="http://www.w3.org/2000/svg">
  <!-- Safari landscape background -->
  <rect width="800" height="500" fill="#FAF7F2" />
  
  <!-- Sky gradient -->
  <rect width="800" height="300" fill="url(#sky_gradient)" />
  
  <!-- Sun -->
  <circle cx="600" cy="120" r="60" fill="#FF9E44" opacity="0.8" />
  
  <!-- Mountains -->
  <path d="M0,300 L200,180 L400,280 L600,200 L800,300 L800,500 L0,500 Z" fill="#E3CEAA" />
  
  <!-- Acacia trees -->
  <g transform="translate(150, 250)">
    <rect x="-5" y="0" width="10" height="50" fill="#8B5A2B" />
    <ellipse cx="0" cy="-15" rx="30" ry="20" fill="#7D9F35" />
  </g>
  
  <g transform="translate(350, 270)">
    <rect x="-3" y="0" width="6" height="30" fill="#8B5A2B" />
    <ellipse cx="0" cy="-10" rx="20" ry="15" fill="#7D9F35" />
  </g>
  
  <g transform="translate(580, 260)">
    <rect x="-4" y="0" width="8" height="40" fill="#8B5A2B" />
    <ellipse cx="0" cy="-12" rx="25" ry="18" fill="#7D9F35" />
  </g>
  
  <!-- Foreground -->
  <path d="M0,350 C50,340 100,360 150,350 C200,340 250,370 300,360 C350,350 400,340 450,350 C500,360 550,340 600,350 C650,340 700,360 750,350 C780,345 790,355 800,350 L800,500 L0,500 Z" fill="#D3B88C" />
  
  <!-- Animals (silhouettes) -->
  <g transform="translate(400, 380) scale(0.6)">
    <path d="M10,0 L50,0 L45,10 L40,5 L30,10 L15,5 Z" fill="#5D4037" />
    <ellipse cx="30" cy="20" rx="25" ry="15" fill="#5D4037" />
    <rect x="10" y="20" width="8" height="25" fill="#5D4037" />
    <rect x="25" y="20" width="8" height="25" fill="#5D4037" />
    <rect x="40" y="20" width="8" height="25" fill="#5D4037" />
  </g>
  
  <!-- Dashboard overlay -->
  <rect x="50" y="50" width="700" height="400" rx="8" fill="white" opacity="0.85" />
  
  <!-- Dashboard header -->
  <rect x="50" y="50" width="700" height="60" rx="8" fill="#4F46E5" opacity="0.1" />
  <rect x="80" y="70" width="120" height="20" rx="4" fill="#4F46E5" opacity="0.3" />
  
  <!-- Dashboard sidebar -->
  <rect x="50" y="110" width="180" height="340" fill="#F9FAFB" />
  <rect x="70" y="130" width="140" height="10" rx="2" fill="#E5E7EB" />
  <rect x="70" y="150" width="120" height="10" rx="2" fill="#E5E7EB" />
  <rect x="70" y="190" width="140" height="10" rx="2" fill="#E5E7EB" />
  <rect x="70" y="210" width="120" height="10" rx="2" fill="#E5E7EB" />
  <rect x="70" y="250" width="140" height="10" rx="2" fill="#E5E7EB" />
  <rect x="70" y="270" width="120" height="10" rx="2" fill="#E5E7EB" />
  
  <!-- Dashboard main content -->
  <rect x="250" y="130" width="480" height="100" rx="8" fill="white" stroke="#E5E7EB" />
  <rect x="270" y="150" width="200" height="20" rx="4" fill="#4F46E5" opacity="0.1" />
  <rect x="270" y="180" width="160" height="10" rx="2" fill="#E5E7EB" />
  <rect x="270" y="200" width="120" height="10" rx="2" fill="#E5E7EB" />
  
  <!-- Dashboard stats cards -->
  <rect x="250" y="250" width="150" height="100" rx="8" fill="white" stroke="#E5E7EB" />
  <rect x="270" y="270" width="100" height="15" rx="2" fill="#E5E7EB" />
  <rect x="270" y="295" width="60" height="25" rx="4" fill="#4F46E5" opacity="0.1" />
  <rect x="270" y="330" width="110" height="8" rx="2" fill="#E5E7EB" />
  
  <rect x="415" y="250" width="150" height="100" rx="8" fill="white" stroke="#E5E7EB" />
  <rect x="435" y="270" width="100" height="15" rx="2" fill="#E5E7EB" />
  <rect x="435" y="295" width="60" height="25" rx="4" fill="#4F46E5" opacity="0.1" />
  <rect x="435" y="330" width="110" height="8" rx="2" fill="#E5E7EB" />
  
  <rect x="580" y="250" width="150" height="100" rx="8" fill="white" stroke="#E5E7EB" />
  <rect x="600" y="270" width="100" height="15" rx="2" fill="#E5E7EB" />
  <rect x="600" y="295" width="60" height="25" rx="4" fill="#4F46E5" opacity="0.1" />
  <rect x="600" y="330" width="110" height="8" rx="2" fill="#E5E7EB" />
  
  <!-- Dashboard table -->
  <rect x="250" y="370" width="480" height="60" rx="8" fill="white" stroke="#E5E7EB" />
  <rect x="270" y="390" width="100" height="10" rx="2" fill="#4F46E5" opacity="0.1" />
  <rect x="390" y="390" width="80" height="10" rx="2" fill="#E5E7EB" />
  <rect x="490" y="390" width="80" height="10" rx="2" fill="#E5E7EB" />
  <rect x="600" y="385" width="60" height="20" rx="4" fill="#4F46E5" opacity="0.2" />
  
  <!-- Gradients -->
  <defs>
    <linearGradient id="sky_gradient" x1="0%" y1="0%" x2="0%" y2="100%">
      <stop offset="0%" stop-color="#FFD8A9" />
      <stop offset="100%" stop-color="#FAF7F2" />
    </linearGradient>
  </defs>
</svg>
